<svg xmlns="http://www.w3.org/2000/svg" id="j" viewBox="0 0 1024 1024"><defs><style>.q{fill:#303042}.s{fill:#605e70}</style></defs><path d="M128 418v126l-46-32 46-94ZM464 0h-92l-89.88 183.42A256 256 0 0 0 256 296.07V576l96-64 123.54-228.94a128 128 0 0 0 14.36-76.72L464 0Z" class="q"/><path d="M82 512h46v94l-46-94Zm382 512 25.9-206.34a128 128 0 0 0-14.36-76.72L352 512h-96v215.93a256 256 0 0 0 26.12 112.65L372 1024h92Z" class="s"/><path d="M372 1024h256l306-512-166-64-108 64-288 512z" class="q"/><path d="M934 512H660L372 0h256l306 512z" class="s"/><path fill="#f39" d="M532 0h-52l296 512-296 512h52l300-512L532 0z"/><path fill="#39c5bb" d="M864 80.24V330l-45.6-75.58A128 128 0 0 1 800 188.3V124l-64 12V74l87.34-24.56A32 32 0 0 1 864 80.24ZM800 900l-64-12v62l87.34 24.56a32 32 0 0 0 40.66-30.8V694l-45.87 76.75A128 128 0 0 0 800 836.42V900ZM224 124l64 12V74l-87.34-24.56A32 32 0 0 0 160 80.24v863.52a32 32 0 0 0 40.66 30.8L288 950v-62l-64 12V124Z"/><path fill="#00b8c6" d="M1024 189.97v644.06a32 32 0 0 1-37.42 31.54L896 850v-62l64 8V228l-64 8v-62l90.58-15.57a32 32 0 0 1 37.42 31.54Zm-1024 0v644.06a32 32 0 0 0 37.42 31.54L128 850v-62l-64 8V228l64 8v-62l-90.58-15.57A32 32 0 0 0 0 189.97Z"/></svg>